<?xml version="1.0" encoding="utf-8"?>
<!-- Generator: Adobe Illustrator 27.0.0, SVG Export Plug-In . SVG Version: 6.00 Build 0)  -->
<svg version="1.1" id="Layer_1" xmlns="http://www.w3.org/2000/svg" xmlns:xlink="http://www.w3.org/1999/xlink" x="0px" y="0px"
	 viewBox="0 0 597 296" style="enable-background:new 0 0 597 296;" xml:space="preserve">
<style type="text/css">
	.st0{opacity:0.2;}
	.st1{fill:#D37816;}
</style>
<g class="st0">
	<path class="st1" d="M79.5,220.6C79.5,220.7,79.5,220.7,79.5,220.6c-1.5,0.6-2.9,1.3-4.2,1.9c-0.7,0.3-1,1.1-0.7,1.8
		c0.3,0.7,1.1,1,1.8,0.7c1.4-0.6,2.7-1.2,4.1-1.9c0.7-0.3,1-1.1,0.7-1.8C80.9,220.7,80.2,220.4,79.5,220.6z"/>
	<path class="st1" d="M372.3,79.8c-0.8,0.3-1.6,0.6-2.4,1c-0.7,0.3-1,1.1-0.7,1.8c0.3,0.7,1.1,1,1.8,0.7c2.7-1.2,5.5-2,8.2-2.3
		c0.7-0.1,1.3-0.8,1.2-1.5s-0.8-1.3-1.5-1.2C376.8,78.4,374.5,79,372.3,79.8z M362.5,85.7c-0.2,0.1-0.3,0.2-0.4,0.3
		c-2.4,2.1-4.4,4.6-6,7.3c-0.4,0.7-0.2,1.5,0.5,1.9c0.7,0.4,1.5,0.2,1.9-0.5c1.4-2.4,3.2-4.6,5.5-6.6c0.5-0.5,0.6-1.4,0.1-1.9
		C363.6,85.6,363,85.5,362.5,85.7z M387.7,79c-0.4,0.1-0.8,0.5-0.9,0.9c-0.2,0.7,0.2,1.5,1,1.7c2.8,0.7,5.4,1.9,7.9,3.5
		c0.6,0.4,1.5,0.2,1.9-0.4c0.4-0.6,0.2-1.5-0.4-1.9c-2.7-1.7-5.6-3-8.7-3.8C388.2,78.9,388,78.9,387.7,79z M353.7,101.1
		c-0.5,0.2-0.8,0.6-0.9,1.1c-0.4,2.8-0.3,5.6,0.3,8.3c0.1,0.4,0.2,0.8,0.3,1.2c0.2,0.7,1,1.2,1.7,0.9c0.7-0.2,1.2-1,0.9-1.7
		c-0.1-0.4-0.2-0.7-0.2-1.1c-0.5-2.4-0.6-4.9-0.3-7.3c0.1-0.8-0.4-1.5-1.2-1.6C354.2,101,353.9,101.1,353.7,101.1z M402.9,88.5
		c-0.2,0.1-0.3,0.2-0.4,0.3c-0.5,0.5-0.6,1.4-0.1,1.9c1.9,2.1,3.6,4.5,5.1,7.1c0.3,0.7,1.2,0.9,1.9,0.5c0.7-0.3,0.9-1.2,0.5-1.8
		c-1.5-2.8-3.3-5.4-5.4-7.6C404,88.4,403.4,88.3,402.9,88.5z M206.6,171.8c-0.7,0.3-1.1,1-0.8,1.7c0.3,0.7,1,1.1,1.7,0.9
		c2.7-0.9,5.6-1.8,8.6-2.6c0.7-0.2,1.2-0.9,1-1.7c-0.2-0.7-0.9-1.2-1.7-1C212.4,170,209.4,170.8,206.6,171.8z M198.2,175.1
		C198.2,175.1,198.2,175.1,198.2,175.1c-3,1.3-5.7,2.8-8.2,4.3c-0.6,0.4-0.9,1.2-0.5,1.9c0.4,0.6,1.2,0.9,1.9,0.5
		c2.5-1.5,5.1-2.8,7.9-4.1c0.7-0.3,1-1.1,0.7-1.8C199.6,175.2,198.9,174.9,198.2,175.1z M104.8,210.5c-0.7,0.3-1.1,1-0.8,1.8
		c0.3,0.7,1,1.1,1.8,0.8c2.8-1,5.7-2,8.5-2.9c0.7-0.3,1.1-1,0.9-1.7c-0.3-0.7-1-1.1-1.7-0.9C110.5,208.5,107.6,209.5,104.8,210.5z
		 M96.2,213.7c-2.9,1.1-5.7,2.2-8.5,3.4c-0.7,0.3-1,1.1-0.8,1.8c0.3,0.7,1.1,1,1.8,0.8c2.7-1.1,5.6-2.3,8.4-3.4
		c0.7-0.3,1.1-1.1,0.8-1.8C97.7,213.8,97,213.4,96.2,213.7z M224.2,167.2c-0.6,0.2-1,0.9-0.9,1.5c0.1,0.7,0.9,1.2,1.6,1.1
		c1.5-0.3,3.1-0.6,4.7-0.9c1.4-0.2,2.7-0.5,4.1-0.6c0.7-0.1,1.3-0.8,1.1-1.5c-0.1-0.7-0.8-1.3-1.5-1.1c-1.4,0.2-2.8,0.4-4.2,0.7
		c-1.7,0.3-3.2,0.6-4.8,0.9C224.3,167.2,224.3,167.2,224.2,167.2z M358.2,118.2c-0.1,0-0.3,0.1-0.3,0.2c-0.6,0.5-0.7,1.3-0.3,1.9
		c1.8,2.4,4.1,4.7,6.7,6.7c0.6,0.5,1.5,0.3,1.9-0.3c0.5-0.6,0.3-1.5-0.3-1.9c-2.4-1.8-4.5-3.9-6.1-6.1
		C359.4,118.1,358.8,118,358.2,118.2z M121.9,204.8c-0.7,0.3-1.1,1-0.8,1.7c0.2,0.7,1,1.1,1.7,0.9c2.9-0.9,5.8-1.7,8.7-2.6
		c0.7-0.2,1.2-1,0.9-1.7c-0.2-0.7-1-1.2-1.7-0.9C127.8,203.1,124.9,203.9,121.9,204.8C122,204.8,122,204.8,121.9,204.8z M139.4,200
		c-0.6,0.2-1,0.9-0.9,1.6c0.2,0.7,0.9,1.2,1.7,1c2-0.5,4.1-1,6.1-1.5c0.9-0.2,1.8-0.4,2.7-0.6c0.7-0.2,1.2-0.9,1-1.6
		c-0.2-0.7-0.9-1.2-1.7-1c-0.9,0.2-1.8,0.4-2.8,0.6c-2,0.5-4.1,1-6.1,1.5C139.5,199.9,139.5,199.9,139.4,200z M182.8,184.4
		c-0.1,0-0.2,0.1-0.4,0.2c-1.2,1-2.4,2-3.5,3c-1.1,1-2.2,2.2-3.2,3.4c-0.5,0.6-0.4,1.4,0.1,1.9c0.6,0.5,1.4,0.4,1.9-0.1
		c1-1.1,2-2.2,3.1-3.2c1-1,2.2-2,3.3-2.9c0.6-0.5,0.7-1.3,0.2-1.9C183.9,184.4,183.3,184.3,182.8,184.4z M242.1,164.5
		c-0.6,0.2-1,0.8-0.9,1.4c0.1,0.7,0.8,1.3,1.5,1.2c3-0.4,6-0.6,9-0.9c0.8,0,1.3-0.7,1.3-1.5c0-0.8-0.7-1.3-1.5-1.3
		c-3,0.2-6.1,0.5-9.1,0.8C242.3,164.4,242.2,164.5,242.1,164.5z M157.1,196.1c-0.6,0.2-1,0.9-0.9,1.5c0.1,0.7,0.8,1.2,1.6,1.1
		c3.2-0.5,6.1-0.9,8.9-1.2c0.7-0.1,1.3-0.7,1.3-1.5c-0.1-0.7-0.7-1.3-1.5-1.3c-2.9,0.2-5.9,0.7-9.1,1.2
		C157.3,196,157.2,196.1,157.1,196.1z M411.5,104.3c-0.6,0.2-1.1,1-0.8,1.7c0.8,2.9,1.2,5.8,1.4,8.6c0,0.8,0.6,1.4,1.4,1.3
		c0.8,0,1.4-0.6,1.3-1.4c-0.1-3.1-0.6-6.2-1.5-9.2c-0.2-0.7-1-1.2-1.7-0.9C411.6,104.2,411.5,104.2,411.5,104.3z M260.2,163.1
		c-0.6,0.2-0.9,0.7-0.9,1.4c0,0.8,0.6,1.4,1.4,1.3c3-0.1,6-0.2,9-0.2c0.8,0,1.4-0.6,1.4-1.4c0-0.8-0.6-1.4-1.4-1.4
		c-3,0-6.1,0.1-9.1,0.2C260.5,163.1,260.3,163.1,260.2,163.1z M175.2,194.6c-0.5,0.2-0.9,0.7-0.9,1.3c0,0.7,0.6,1.4,1.3,1.4
		c3.1,0,6,0.3,8.8,0.8c0.7,0.1,1.5-0.4,1.6-1.1c0.1-0.7-0.4-1.5-1.1-1.6c-2.9-0.5-6-0.8-9.2-0.8
		C175.5,194.5,175.4,194.5,175.2,194.6z M170.8,198c-0.3,0.1-0.5,0.3-0.7,0.6c-1.6,2.7-3,5.5-4.1,8.4c-0.3,0.7,0.1,1.5,0.8,1.8
		c0.7,0.3,1.5-0.1,1.8-0.8c1-2.7,2.3-5.4,3.8-7.9c0.4-0.6,0.2-1.5-0.4-1.9C171.7,197.9,171.2,197.9,170.8,198z M278.3,163.2
		c-0.5,0.2-0.9,0.7-0.9,1.3c0,0.7,0.6,1.4,1.3,1.4c1.1,0,2.2,0.1,3.4,0.1c1.8,0.1,3.7,0.2,5.7,0.4c0.8,0.1,1.4-0.5,1.5-1.3
		c0.1-0.8-0.5-1.4-1.3-1.5c-2-0.1-3.9-0.3-5.7-0.4c-1.1-0.1-2.3-0.1-3.4-0.2C278.7,163.1,278.5,163.1,278.3,163.2z M372.5,129
		c-0.3,0.1-0.6,0.4-0.8,0.8c-0.3,0.7,0.1,1.5,0.7,1.8c1.7,0.7,3.5,1.3,5.3,1.8c1.2,0.3,2.4,0.6,3.7,0.8c0.7,0.1,1.5-0.4,1.6-1.1
		c0.1-0.7-0.4-1.5-1.1-1.6c-1.2-0.2-2.4-0.4-3.5-0.7c-1.7-0.4-3.3-1-4.9-1.6C373.2,128.9,372.8,128.9,372.5,129z M530.3,73.2
		c-0.1,0-0.2,0.1-0.4,0.2c-2.3,1.9-4.7,3.8-7.1,5.6c-0.6,0.5-0.7,1.3-0.3,1.9c0.5,0.6,1.3,0.7,1.9,0.3c2.4-1.8,4.8-3.7,7.2-5.6
		c0.6-0.5,0.7-1.3,0.2-1.9C531.4,73.2,530.8,73,530.3,73.2z M193,197.6c-0.4,0.1-0.7,0.4-0.8,0.8c-0.3,0.7,0.1,1.5,0.8,1.7
		c1.7,0.6,3.5,1.4,5.1,2.2c1,0.5,1.9,1,2.8,1.6c0.6,0.4,1.5,0.2,1.9-0.4c0.4-0.6,0.2-1.5-0.4-1.9c-1-0.6-2-1.2-3.1-1.7
		c-1.7-0.9-3.6-1.6-5.4-2.3C193.7,197.5,193.3,197.4,193,197.6z M296.5,164.5c-0.5,0.2-0.8,0.6-0.9,1.2c-0.1,0.8,0.5,1.4,1.2,1.5
		c2.8,0.2,5.5,0.5,8.3,0.9l0.7,0.1c0.8,0.1,1.4-0.5,1.5-1.2c0.1-0.8-0.5-1.4-1.2-1.5l-0.7-0.1c-2.8-0.3-5.5-0.5-8.3-0.8
		C296.8,164.4,296.6,164.4,296.5,164.5z M515.8,84.1c-0.1,0-0.2,0.1-0.3,0.2c-2.4,1.7-5,3.4-7.5,5.1c-0.6,0.4-0.8,1.3-0.4,1.9
		c0.4,0.6,1.3,0.8,1.9,0.4c2.5-1.7,5.1-3.4,7.5-5.1c0.6-0.4,0.7-1.3,0.3-1.9C517,84.1,516.4,83.9,515.8,84.1z M412.2,122.2
		c-0.4,0.2-0.8,0.5-0.9,1c-0.5,2.3-1.1,4.5-2,6.8c-0.3,0.1-0.5,0.1-0.9,0.2c-0.7,0.1-1.2,0.8-1.1,1.6c0.2,0.7,0.7,1.1,1.4,1.1
		c0.1,0.2,0.3,0.4,0.6,0.5c0.7,0.3,1.5,0,1.8-0.7c0.1-0.1,0.1-0.2,0.1-0.3c0.1,0,0.3-0.1,0.4-0.1c2.1-0.4,4.1-0.9,6.2-1.4
		c0.7-0.2,1.2-0.9,1-1.6c-0.2-0.7-0.9-1.2-1.7-1c-1.6,0.4-3.2,0.7-4.9,1.1c0.6-1.8,1.1-3.7,1.5-5.6c0.2-0.7-0.3-1.5-1.1-1.6
		C412.7,122.1,412.4,122.1,412.2,122.2z M390.3,132.2c-0.5,0.2-0.9,0.7-0.9,1.3c0,0.8,0.6,1.4,1.4,1.3c2.9,0,5.9-0.2,9.2-0.6
		c0.7-0.1,1.3-0.8,1.2-1.5c-0.1-0.7-0.8-1.3-1.5-1.2c-3.2,0.4-6.1,0.6-8.9,0.6C390.6,132.1,390.4,132.2,390.3,132.2z M164.6,214.9
		c-0.4,0.2-0.8,0.5-0.9,1c-0.5,3.1-0.7,6.3-0.4,9.4c0,0.8,0.7,1.4,1.4,1.3c0.8,0,1.4-0.7,1.3-1.4c-0.2-2.9,0-5.8,0.4-8.7
		c0.1-0.7-0.4-1.5-1.1-1.6C165,214.8,164.8,214.8,164.6,214.9z M500.7,94.1c-0.1,0-0.2,0.1-0.2,0.1c-2.5,1.6-5.2,3.1-7.7,4.6
		c-0.6,0.4-0.9,1.2-0.5,1.9c0.4,0.6,1.2,0.9,1.9,0.5c2.6-1.5,5.2-3,7.8-4.6c0.6-0.4,0.9-1.2,0.4-1.9C502,94.2,501.3,93.9,500.7,94.1
		z M484.9,103.1c0,0-0.1,0-0.2,0.1c-2.6,1.4-5.3,2.8-8,4.1c-0.7,0.3-0.9,1.1-0.6,1.8c0.3,0.7,1.1,1,1.8,0.6c2.7-1.3,5.5-2.7,8.1-4.1
		c0.7-0.3,0.9-1.2,0.6-1.9C486.3,103.2,485.6,102.9,484.9,103.1z M314.5,166.3c-0.5,0.2-0.8,0.6-0.9,1.2c-0.1,0.8,0.5,1.4,1.2,1.5
		c3.4,0.3,6.3,0.6,9.1,0.8c0.8,0.1,1.4-0.5,1.5-1.3c0.1-0.8-0.5-1.4-1.3-1.5c-2.7-0.2-5.7-0.5-9-0.7
		C314.9,166.2,314.7,166.2,314.5,166.3z M425.9,126.1c-0.6,0.2-1,1-0.9,1.6c0.2,0.7,1,1.2,1.7,1c2.9-0.8,5.9-1.6,8.8-2.5
		c0.7-0.2,1.1-1,0.9-1.7c-0.2-0.7-1-1.1-1.7-0.9c-2.9,0.9-5.8,1.7-8.7,2.4C426,126.1,426,126.1,425.9,126.1z M468.6,111
		C468.6,111.1,468.6,111.1,468.6,111c-2.8,1.3-5.6,2.4-8.4,3.6c-0.7,0.3-1,1.1-0.8,1.8c0.3,0.7,1.1,1,1.8,0.8
		c2.8-1.1,5.6-2.3,8.4-3.6c0.7-0.3,1-1.1,0.7-1.8C470.1,111.1,469.3,110.8,468.6,111z M443.3,120.9c-0.7,0.3-1.1,1-0.8,1.7
		c0.3,0.7,1,1.1,1.7,0.9c2.9-1,5.7-2,8.6-3.1c0.7-0.3,1.1-1.1,0.8-1.8c-0.3-0.7-1.1-1.1-1.8-0.8C449.1,119,446.2,120,443.3,120.9z
		 M208.2,207.3c-0.2,0.1-0.3,0.2-0.5,0.3c-0.5,0.5-0.6,1.4-0.1,1.9c2,2.1,3.7,4.5,5.1,7.1c0.4,0.6,1.2,0.9,1.9,0.5
		c0.6-0.4,0.9-1.2,0.5-1.8c-1.5-2.7-3.4-5.3-5.5-7.6C209.3,207.2,208.7,207.1,208.2,207.3z M405.2,138.8c-0.3,0.1-0.5,0.3-0.7,0.5
		c-1.6,2.4-3.5,4.7-5.5,6.9c-0.5,0.5-0.5,1.4,0.1,1.9c0.5,0.5,1.4,0.5,1.9-0.1c2.1-2.3,4.1-4.8,5.8-7.3c0.4-0.6,0.2-1.5-0.4-1.9
		C406,138.7,405.5,138.7,405.2,138.8z M332.6,167.5c-0.5,0.2-0.9,0.7-0.9,1.3c0,0.7,0.6,1.4,1.3,1.4l0.8,0c2.8,0.1,5.6,0.1,8.3,0
		c0.8,0,1.4-0.6,1.3-1.4c0-0.8-0.6-1.4-1.4-1.3c-2.6,0-5.4,0.1-8.2,0l-0.8,0C332.9,167.4,332.8,167.5,332.6,167.5z M165.9,232.8
		c-0.7,0.3-1.1,1-0.8,1.7c0.1,0.3,0.2,0.6,0.3,0.9c0.5,1.3,1,2.6,1.7,3.8c0.7,1.3,1.4,2.5,2.3,3.7c0.5,0.6,1.3,0.7,1.9,0.3
		c0.6-0.5,0.7-1.3,0.3-1.9c-0.8-1.1-1.5-2.2-2.1-3.4c-0.6-1.2-1.1-2.3-1.5-3.5c-0.1-0.3-0.2-0.5-0.3-0.8
		C167.4,232.9,166.6,232.5,165.9,232.8z M350.7,167c-0.6,0.2-0.9,0.8-0.9,1.4c0.1,0.7,0.7,1.3,1.5,1.3c3.2-0.3,6.2-0.7,9.1-1.2
		c0.7-0.1,1.2-0.8,1.1-1.6c-0.1-0.7-0.8-1.2-1.6-1.1c-2.8,0.5-5.9,0.9-8.9,1.2C351,167,350.8,167,350.7,167z M392.9,152
		c-0.1,0-0.3,0.1-0.4,0.2c-2.3,1.8-4.8,3.5-7.4,4.9c-0.6,0.4-0.9,1.2-0.5,1.9c0.4,0.6,1.2,0.9,1.9,0.5c2.7-1.5,5.3-3.2,7.7-5.1
		c0.6-0.5,0.7-1.3,0.2-1.9C394,152,393.4,151.8,392.9,152z M368.6,163.9c-0.6,0.2-1.1,1-0.8,1.7c0.2,0.7,1,1.2,1.7,0.9
		c2.2-0.6,4.3-1.3,6.3-2c0.8-0.3,1.6-0.6,2.4-0.9c0.7-0.3,1.1-1.1,0.8-1.8c-0.3-0.7-1.1-1-1.8-0.8c-0.8,0.3-1.5,0.6-2.3,0.9
		C372.8,162.6,370.7,163.3,368.6,163.9C368.6,163.9,368.6,163.9,368.6,163.9z M216.9,222.9c-0.6,0.2-1,1-0.9,1.6
		c0.8,2.9,1.1,5.8,1,8.5c-0.1,0.8,0.6,1.4,1.3,1.4c0.8,0.1,1.4-0.6,1.4-1.3c0.2-3-0.2-6.2-1-9.4c-0.2-0.7-1-1.2-1.7-1
		C217,222.9,216.9,222.9,216.9,222.9z M176.5,247.1c-0.3,0.1-0.5,0.3-0.6,0.5c-0.5,0.6-0.3,1.5,0.3,1.9c2.6,1.8,5.4,3.2,8.4,4.3
		c0.7,0.3,1.5-0.1,1.7-0.8c0.2-0.7-0.1-1.5-0.8-1.7c-2.8-1-5.4-2.3-7.7-3.9C177.4,247,176.9,247,176.5,247.1z M215.8,240.6
		c-0.3,0.1-0.6,0.4-0.8,0.7c-0.6,1.3-1.4,2.6-2.3,3.8c-0.8,1.1-1.7,2-2.8,2.9c-0.6,0.5-0.7,1.4-0.2,1.9c0.5,0.6,1.4,0.7,1.9,0.2
		c1.2-1,2.2-2.1,3.2-3.3c1-1.3,1.9-2.8,2.6-4.3c0.3-0.7,0-1.5-0.7-1.8C216.5,240.5,216.1,240.5,215.8,240.6z M193.4,253
		c-0.5,0.2-0.9,0.7-0.9,1.2c0,0.7,0.6,1.4,1.3,1.4c3.3,0.1,6.5-0.2,9.4-1c0.7-0.2,1.2-1,0.9-1.7c-0.2-0.7-1-1.2-1.7-0.9
		c-2.6,0.8-5.5,1.1-8.5,0.9C193.8,252.9,193.6,253,193.4,253z"/>
	<path class="st1" d="M540.7,64.4c-0.2,0.1-0.3,0.2-0.4,0.3c-1.1,1-2.3,2-3.4,3c-0.5,0.5-0.6,1.3-0.1,1.9c0.5,0.5,1.3,0.6,1.9,0.1
		c1.1-1,2.3-2,3.5-3c0.5-0.5,0.6-1.4,0.1-1.9C541.8,64.3,541.2,64.2,540.7,64.4z"/>
	<path class="st1" d="M49,205.6c-2,1-3.3,3-3.4,5.2l-1.3,22.8c-0.1,1.6-1,3-2.4,3.7l-7.7,4c-1.9,1-3.6,2.4-4.9,4.1l-0.8,1.1
		c-0.7,0.9,0,2.2,1.1,2.2h1.4c2.1,0,4.3-0.5,6.2-1.5l7.8-3.8c1.4-0.7,3.1-0.6,4.4,0.3l19.1,12.5c1.9,1.2,4.3,1.4,6.3,0.4
		c-8-5.6-15.2-14-18.1-17.6c-0.4-0.5-0.2-1.2,0.3-1.5l1.3,1.4c0.6,0.7,1.6,0.8,2.4,0.3l2-1.5c0.3-0.2,0.5-0.5,0.5-0.8
		c0.1-0.3,0.3-0.6,0.6-0.8l0.7-0.5l-1,0.3c-0.3,0.1-0.6,0.1-0.9,0l-0.5-0.2l-0.8-0.3l1.6-0.8c1-0.5,2.1-1.2,2.9-1.9l4.5-3.9l4.9,4.5
		c1,1,2.6,1.1,3.8,0.3l1.8-1.2l-7.1-6.6l1.3-1.1c0.2-0.2,0-0.5-0.2-0.4l-1.6,0.4l-1.1-9.6l-2,0.7c-1.3,0.5-2.2,1.8-2,3.2l0.7,6.6
		l-5.8,1.3c-1.2,0.3-2.3,0.7-3.3,1.2l-1.6,0.8l0.3-0.8l0.2-0.5c0.1-0.3,0.3-0.5,0.5-0.7l0.8-0.6l-0.9,0.3c-0.3,0.1-0.7,0.1-1,0
		c-0.3-0.1-0.7-0.1-1-0.1l-2.4,0.7c-0.9,0.2-1.4,1.2-1.2,2.1l0.4,1.9c-0.6,0.3-1.2,0-1.4-0.6C51.1,226.2,48.7,215.4,49,205.6z"/>
	<path class="st1" d="M557,34c-18.2-8.4-10.1,21.9-10.1,21.9S575.2,42.4,557,34z M550.6,47.8c-3.4-1.6-4.9-5.6-3.3-9
		c1.6-3.4,5.6-4.8,9-3.3c3.4,1.6,4.9,5.6,3.3,9C558,47.9,554,49.4,550.6,47.8z"/>
	<path class="st1" d="M555.9,36.4c-2.9-1.4-6.4-0.1-7.8,2.8s-0.1,6.4,2.9,7.8c2.9,1.3,6.4,0.1,7.8-2.8
		C560.1,41.2,558.8,37.7,555.9,36.4z M551.3,46.1c-2.5-1.1-3.5-4.1-2.4-6.5c1.1-2.5,4.1-3.5,6.5-2.4c2.5,1.1,3.5,4.1,2.4,6.5
		C556.7,46.2,553.8,47.3,551.3,46.1z"/>
	<path class="st1" d="M547,61.1c-0.5,1.1-1.8,1.6-3,1.1c-1.1-0.5-1.6-1.9-1.1-3c0.5-1.1,1.8-1.6,3-1.1C547,58.6,547.5,59.9,547,61.1
		z"/>
</g>
</svg>
